<?xml version="1.0" encoding="UTF-8"?>
<!DOCTYPE svg PUBLIC "-//W3C//DTD SVG 1.0//EN" "http://www.w3.org/TR/2001/REC-SVG-20010904/DTD/svg10.dtd">
<!-- Creator: CorelDRAW X8 -->
<svg xmlns="http://www.w3.org/2000/svg" xml:space="preserve" width="2931px" height="1029px" version="1.0" style="shape-rendering:geometricPrecision; text-rendering:geometricPrecision; image-rendering:optimizeQuality; fill-rule:evenodd; clip-rule:evenodd"
viewBox="0 0 2891 1015"
 xmlns:xlink="http://www.w3.org/1999/xlink">
 <defs>
  <style type="text/css">
   <![CDATA[
    .fil1 {fill:#FAA831}
    .fil0 {fill:#373C6E}
    .fil2 {fill:#373C6E;fill-rule:nonzero}
    .fil3 {fill:#383A6D;fill-rule:nonzero}
   ]]>
  </style>
 </defs>
 <g id="Camada_x0020_1">
  <metadata id="CorelCorpID_0Corel-Layer"/>
  <path class="fil0" d="M564 66c249,0 452,203 452,452 0,180 -106,336 -259,409 -2,1 -5,2 -8,4 5,-5 10,-9 14,-13 31,-31 57,-67 78,-105 2,-9 -2,-10 -13,-2 -28,13 -68,60 -83,99l0 0 -1 1 0 0 0 1 0 0 -1 0 0 1 0 1 0 0 -1 1 0 0 0 1 0 0 -1 2 0 0 0 1 -1 0 0 1 0 1 0 0 -1 1 0 0 0 1 0 0 -1 2 0 0 0 2 0 0 0 0c-1,3 -1,6 -1,7l0 0 0 1 0 0 1 0 0 0 0 0 0 0 0 0 0 1 0 0 0 0c-13,5 -27,10 -40,14 11,-10 19,-21 25,-32 13,-40 -16,-69 -69,-61 -59,6 -113,52 -116,96 -1,7 -1,12 1,17 -13,-1 -25,-2 -38,-4 1,-3 2,-7 2,-11 2,-45 -49,-86 -113,-88 -35,-2 -64,8 -81,25 -40,-27 -75,-61 -105,-99 20,-16 31,-45 29,-81 -2,-65 -47,-118 -95,-117 -7,0 -14,2 -20,5 -2,-16 -4,-31 -6,-46 8,4 17,7 27,6 48,-3 95,-57 100,-118 7,-56 -26,-88 -69,-76 -15,6 -30,18 -43,33 5,-19 12,-38 20,-56 1,6 11,7 31,-2 42,-14 90,-55 102,-86 10,-17 2,-21 -15,-14 -41,22 -79,50 -111,84 73,-153 229,-259 410,-259zm292 531c21,2 30,41 26,86 -8,44 -27,88 -46,101 -29,11 -52,-23 -46,-80 3,-60 35,-108 66,-107zm-188 -4c57,1 99,52 96,113 -6,59 -52,110 -106,118 -60,5 -110,-42 -108,-107 0,-69 55,-125 118,-124zm-284 -1c69,0 126,57 125,125 0,66 -55,117 -121,115 -64,-3 -117,-56 -121,-119 -2,-66 50,-121 117,-121zm434 -197c18,16 40,59 52,98 10,43 5,77 -16,73 -30,-3 -65,-54 -72,-109 -10,-52 8,-78 36,-62zm-169 -54c51,10 98,58 107,111 7,57 -31,104 -89,102 -62,-1 -118,-57 -120,-121 -2,-59 44,-99 102,-92zm-258 -11c63,-2 116,42 117,102 1,64 -55,119 -124,120 -67,1 -116,-51 -112,-113 6,-57 59,-104 119,-109zm427 51c-1,-1 -5,-4 -11,-9 -26,-17 -67,-59 -84,-87 -6,-7 -9,-11 -10,-13 41,30 77,67 105,109zm-215 -165c39,14 82,38 99,59 16,29 -9,49 -59,38 -55,-7 -106,-45 -111,-78 -5,-24 28,-30 71,-19zm-194 -17c48,-3 89,10 91,34 3,33 -45,66 -106,68 -59,5 -97,-21 -86,-53 11,-22 56,-42 101,-49z"/>
  <path class="fil1" d="M508 0c6,0 13,0 20,0 -252,26 -449,239 -449,497 0,275 224,499 499,499 34,0 67,-4 99,-10 -53,19 -110,29 -169,29 -280,0 -508,-228 -508,-507 0,-280 228,-508 508,-508z"/>
  <path class="fil1" d="M649 341c51,10 98,58 107,111 7,57 -31,104 -89,102 -62,-1 -118,-57 -120,-121 -2,-59 44,-99 102,-92z"/>
  <path class="fil0" d="M1469 503l-83 0 0 -125 293 0c0,11 0,19 1,24 0,6 0,10 0,15 0,30 -3,58 -9,83 -5,25 -14,47 -25,66 -27,45 -62,80 -104,104 -43,24 -91,36 -145,36 -40,0 -78,-7 -112,-20 -34,-14 -65,-33 -91,-59 -26,-26 -46,-56 -60,-89 -13,-34 -20,-70 -20,-110 0,-39 7,-76 21,-109 13,-34 33,-63 59,-89 26,-25 57,-45 91,-59 34,-13 72,-20 112,-20 54,0 102,12 144,36 42,23 77,58 103,104l-169 63c-9,-15 -20,-26 -32,-33 -13,-7 -27,-11 -43,-11 -28,0 -51,11 -68,32 -16,22 -25,50 -25,86 0,38 9,67 26,87 16,21 40,31 71,31 18,0 33,-4 45,-11 11,-8 18,-19 20,-32zm232 144l61 -148c27,19 52,33 73,41 21,9 41,14 60,14 13,0 23,-3 30,-8 8,-5 12,-11 12,-20 0,-15 -19,-26 -56,-34 -13,-2 -22,-4 -29,-6 -39,-9 -69,-26 -90,-51 -21,-24 -32,-55 -32,-92 0,-57 21,-103 61,-138 41,-36 94,-54 160,-54 31,0 61,4 90,12 29,8 59,20 89,36l-58 139c-18,-14 -37,-24 -55,-31 -18,-7 -36,-11 -54,-11 -13,0 -23,2 -30,7 -8,4 -11,10 -11,18 0,15 26,28 79,40 8,2 15,3 19,4 37,8 65,25 86,50 21,25 32,56 32,92 0,58 -21,106 -64,143 -42,37 -97,56 -165,56 -34,0 -69,-5 -104,-15 -34,-10 -69,-25 -104,-44zm809 -223c-1,18 -5,42 -12,75 -1,5 -2,10 -3,13l-40 180 -166 0 -154 -529 190 0 42 233c4,21 6,39 8,56 2,17 3,33 4,48l4 0c1,-21 5,-48 12,-83 0,-3 1,-5 1,-7l50 -247 134 0 50 247c1,2 1,4 2,7 7,35 10,62 11,83l4 0c1,-15 2,-31 4,-48 2,-17 5,-35 8,-56l42 -233 190 0 -154 529 -166 0 -40 -180c0,-3 -1,-8 -2,-13 -8,-33 -12,-57 -12,-75l-7 0z"/>
  <path class="fil2" d="M1156 803l13 0 0 130 -13 0 0 -130zm41 33l12 0 0 18c5,-7 11,-12 17,-15 6,-3 12,-5 19,-5 7,0 14,2 19,5 6,4 10,9 13,15 2,6 4,16 4,29l0 50 -13 0 0 -46c0,-11 0,-19 -1,-22 -2,-7 -4,-12 -8,-15 -4,-3 -10,-5 -16,-5 -8,0 -15,3 -20,8 -6,5 -10,11 -12,18 -1,5 -2,14 -2,26l0 36 -12 0 0 -97zm121 -35l12 0 0 35 20 0 0 11 -20 0 0 86 -12 0 0 -86 -17 0 0 -11 17 0 0 -35zm132 100l10 5c-3,7 -7,12 -12,17 -4,4 -9,7 -15,9 -6,2 -12,3 -19,3 -16,0 -28,-5 -37,-15 -9,-11 -13,-22 -13,-35 0,-12 4,-23 11,-33 10,-12 22,-18 38,-18 17,0 30,6 40,19 7,8 10,19 10,33l-86 0c0,11 4,20 10,27 7,7 16,11 26,11 5,0 10,-1 14,-3 5,-1 9,-4 12,-7 3,-2 7,-7 11,-13zm0 -26c-2,-7 -4,-12 -8,-16 -3,-4 -7,-7 -12,-10 -5,-2 -11,-3 -17,-3 -9,0 -17,3 -24,9 -5,4 -9,11 -11,20l72 0zm119 -39l13 0 0 77c0,14 -2,24 -4,30 -3,9 -9,15 -17,20 -8,5 -17,7 -29,7 -8,0 -15,-1 -22,-3 -7,-2 -12,-6 -16,-9 -4,-4 -8,-10 -11,-18l13 0c4,7 8,11 14,14 6,4 13,5 22,5 8,0 15,-2 21,-5 6,-3 10,-7 12,-12 3,-4 4,-12 4,-23l0 -5c-4,6 -10,11 -17,14 -7,3 -14,5 -21,5 -9,0 -17,-3 -25,-7 -8,-4 -14,-10 -18,-18 -5,-7 -7,-15 -7,-24 0,-9 3,-17 7,-25 4,-8 11,-14 18,-18 8,-5 16,-7 25,-7 7,0 14,1 20,4 6,3 12,8 18,15l0 -17zm-36 10c-7,0 -14,2 -20,5 -6,3 -11,8 -14,14 -3,6 -5,13 -5,19 0,11 3,20 10,27 8,7 17,10 28,10 11,0 20,-3 27,-10 7,-7 11,-16 11,-27 0,-7 -2,-14 -5,-20 -3,-5 -8,-10 -14,-13 -5,-3 -12,-5 -18,-5zm71 -10l12 0 0 15c4,-6 8,-10 12,-13 4,-3 9,-4 13,-4 4,0 7,1 11,3l-6 11c-3,-1 -5,-2 -7,-2 -4,0 -8,2 -12,5 -4,3 -7,9 -9,16 -1,5 -2,16 -2,33l0 33 -12 0 0 -97zm155 0l0 97 -13 0 0 -17c-5,6 -11,11 -17,14 -7,4 -14,5 -21,5 -14,0 -26,-5 -35,-15 -10,-10 -15,-22 -15,-36 0,-14 5,-25 15,-35 10,-10 21,-15 35,-15 8,0 15,2 22,5 6,3 12,8 16,15l0 -18 13 0zm-50 10c-7,0 -13,2 -19,5 -6,3 -11,8 -14,14 -3,6 -5,13 -5,20 0,7 2,13 5,19 4,6 8,11 14,15 6,3 12,5 19,5 7,0 13,-2 19,-5 6,-4 11,-8 14,-14 4,-6 5,-13 5,-20 0,-11 -3,-20 -11,-28 -7,-7 -16,-11 -27,-11zm88 -45l13 0 0 35 19 0 0 11 -19 0 0 86 -13 0 0 -86 -17 0 0 -11 17 0 0 -35zm132 100l10 5c-3,7 -7,12 -12,17 -4,4 -9,7 -15,9 -5,2 -12,3 -19,3 -15,0 -28,-5 -36,-15 -9,-11 -14,-22 -14,-35 0,-12 4,-23 12,-33 9,-12 22,-18 38,-18 16,0 29,6 39,19 7,8 10,19 11,33l-87 0c0,11 4,20 11,27 7,7 15,11 25,11 5,0 10,-1 15,-3 4,-1 8,-4 11,-7 4,-2 7,-7 11,-13zm0 -26c-2,-7 -4,-12 -7,-16 -3,-4 -8,-7 -13,-10 -5,-2 -10,-3 -16,-3 -10,0 -18,3 -25,9 -4,4 -8,11 -11,20l72 0zm133 -76l0 134 -13 0 0 -17c-5,6 -11,11 -17,14 -6,4 -14,5 -21,5 -14,0 -25,-5 -35,-15 -10,-10 -15,-22 -15,-36 0,-14 5,-25 15,-35 10,-10 21,-15 35,-15 8,0 15,2 22,5 6,3 12,8 16,15l0 -55 13 0zm-50 47c-7,0 -13,2 -19,5 -6,3 -10,8 -14,14 -3,6 -5,13 -5,20 0,7 2,13 5,19 4,6 8,11 14,15 6,3 12,5 19,5 7,0 13,-2 19,-5 6,-4 11,-8 14,-14 4,-6 5,-13 5,-20 0,-11 -3,-20 -11,-28 -7,-7 -16,-11 -27,-11zm116 62l12 -6c7,14 16,21 27,21 4,0 8,-1 12,-3 4,-2 7,-4 9,-8 2,-3 3,-7 3,-11 0,-4 -2,-8 -5,-13 -4,-5 -11,-12 -22,-20 -11,-9 -18,-15 -20,-18 -5,-6 -7,-13 -7,-20 0,-6 1,-11 4,-16 2,-4 6,-8 11,-11 5,-2 10,-4 16,-4 6,0 12,2 17,5 6,3 11,8 17,17l-10 8c-5,-7 -9,-11 -13,-13 -3,-2 -7,-3 -11,-3 -5,0 -10,1 -13,5 -3,3 -5,7 -5,11 0,3 1,6 2,9 1,2 3,5 6,8 2,2 8,6 17,13 11,9 19,16 23,22 5,7 7,13 7,20 0,9 -4,18 -11,25 -7,6 -16,10 -26,10 -8,0 -15,-2 -22,-6 -6,-5 -12,-12 -18,-22zm148 -74c14,0 27,5 36,16 9,10 14,21 14,35 0,13 -5,25 -14,35 -10,10 -22,15 -36,15 -15,0 -27,-5 -36,-15 -10,-10 -14,-22 -14,-35 0,-13 4,-25 13,-35 9,-11 22,-16 37,-16zm0 12c-11,0 -19,4 -27,12 -7,7 -11,16 -11,27 0,7 2,14 5,20 4,6 8,10 14,14 6,3 12,4 19,4 6,0 13,-1 19,-4 5,-4 10,-8 13,-14 3,-6 5,-13 5,-20 0,-11 -4,-20 -11,-27 -7,-8 -16,-12 -26,-12zm71 -47l12 0 0 134 -12 0 0 -134zm36 37l13 0 0 45c0,11 0,19 2,23 1,6 5,11 10,14 5,3 11,5 18,5 7,0 12,-2 17,-5 5,-3 8,-8 10,-13 1,-4 2,-12 2,-24l0 -45 13 0 0 48c0,13 -2,23 -5,30 -3,6 -8,12 -14,15 -6,4 -14,6 -23,6 -10,0 -18,-2 -24,-6 -6,-3 -11,-9 -14,-15 -3,-7 -5,-18 -5,-31l0 -47zm123 -35l12 0 0 35 20 0 0 11 -20 0 0 86 -12 0 0 -86 -17 0 0 -11 17 0 0 -35zm55 -4c3,0 5,1 7,3 2,2 3,4 3,7 0,3 -1,5 -3,7 -2,2 -4,3 -7,3 -3,0 -5,-1 -7,-3 -2,-2 -3,-4 -3,-7 0,-3 1,-5 3,-7 2,-2 4,-3 7,-3zm-6 39l12 0 0 97 -12 0 0 -97zm83 -2c15,0 27,5 37,16 9,10 13,21 13,35 0,13 -4,25 -14,35 -9,10 -21,15 -36,15 -14,0 -26,-5 -36,-15 -9,-10 -14,-22 -14,-35 0,-13 5,-25 13,-35 10,-11 22,-16 37,-16zm0 12c-10,0 -19,4 -26,12 -7,7 -11,16 -11,27 0,7 2,14 5,20 3,6 8,10 14,14 5,3 12,4 18,4 7,0 13,-1 19,-4 6,-4 10,-8 14,-14 3,-6 5,-13 5,-20 0,-11 -4,-20 -11,-27 -8,-8 -16,-12 -27,-12zm73 -10l13 0 0 18c5,-7 10,-12 16,-15 6,-3 13,-5 20,-5 7,0 13,2 19,5 6,4 10,9 12,15 3,6 4,16 4,29l0 50 -12 0 0 -46c0,-11 0,-19 -1,-22 -2,-7 -5,-12 -9,-15 -4,-3 -9,-5 -16,-5 -7,0 -14,3 -20,8 -6,5 -10,11 -11,18 -2,5 -2,14 -2,26l0 36 -13 0 0 -97zm159 11l-8 8c-6,-6 -13,-9 -19,-9 -4,0 -7,1 -10,4 -3,2 -5,5 -5,9 0,3 2,6 4,9 2,3 7,6 15,10 9,5 15,9 19,14 3,4 4,9 4,15 0,8 -2,14 -8,20 -5,5 -12,8 -21,8 -5,0 -11,-1 -16,-3 -5,-3 -9,-6 -12,-10l8 -9c6,7 13,10 20,10 5,0 9,-1 12,-4 4,-4 6,-7 6,-12 0,-3 -2,-6 -4,-9 -2,-3 -7,-6 -15,-10 -9,-5 -15,-9 -18,-14 -3,-4 -5,-9 -5,-15 0,-7 3,-13 8,-18 5,-5 11,-7 19,-7 8,0 17,4 26,13z"/>
  <g>
   <path class="fil3" d="M1156 800l13 0 2 0 0 3 0 130 0 2 -2 0 -13 0 -3 0 0 -2 0 -130 0 -3 3 0zm10 5l-8 0 0 125 8 0 0 -125zm31 29l12 0 3 0 0 2 0 11c1,-2 2,-3 3,-4 3,-2 6,-5 9,-6l0 0c4,-2 7,-3 10,-4 4,-1 7,-2 11,-2 4,0 8,1 11,2l0 0c3,1 7,2 10,4l0 0c3,2 5,5 8,7l0 0c2,3 4,6 5,9l0 0c1,4 2,8 3,13l0 0c1,5 1,11 1,17l0 50 0 2 -2 0 -13 0 -2 0 0 -2 0 -46c0,-6 0,-10 -1,-14 0,-3 0,-6 -1,-8l0 0c0,-3 -1,-5 -2,-8 -2,-2 -3,-3 -5,-5l0 0c-2,-1 -4,-2 -6,-3l0 0c-3,-1 -5,-1 -8,-1 -4,0 -7,0 -10,2 -3,1 -6,2 -9,5l0 0c-3,2 -5,5 -7,8l0 0c-2,2 -3,5 -4,9l0 0c0,2 -1,5 -1,10 0,4 0,9 0,15l0 36 0 2 -3 0 -12 0 -3 0 0 -2 0 -97 0 -2 3 0zm10 5l-8 0 0 91 8 0 0 -33c0,-6 0,-11 0,-16 0,-4 1,-8 1,-10l0 0c1,-4 3,-8 5,-11l0 0c2,-3 5,-6 8,-9l0 0c3,-3 7,-5 10,-6 4,-1 8,-2 12,-2 3,0 6,0 9,1l0 0c3,1 6,2 8,4l0 0c2,2 4,4 6,7 1,3 3,6 3,9 1,2 1,5 2,9 0,4 0,8 0,14l0 43 7 0 0 -47c0,-6 0,-12 -1,-17 0,-4 -1,-8 -3,-11l0 0c-1,-3 -2,-5 -4,-7l0 0c-2,-3 -4,-5 -7,-6 -3,-2 -5,-3 -8,-4l0 0c-3,-1 -6,-2 -10,-2 -3,0 -6,1 -9,2 -4,0 -6,2 -9,3l0 0c-3,2 -6,4 -8,6 -3,2 -6,5 -8,8l-4 6 0 -7 0 -15zm62 25l0 0 0 0 0 0zm49 -66l12 0 3 0 0 3 0 33 17 0 3 0 0 2 0 11 0 3 -3 0 -17 0 0 83 0 2 -3 0 -12 0 -3 0 0 -2 0 -83 -14 0 -2 0 0 -3 0 -11 0 -2 2 0 14 0 0 -33 0 -3 3 0zm10 5l-8 0 0 33 0 3 -2 0 -14 0 0 6 14 0 2 0 0 2 0 83 8 0 0 -83 0 -2 2 0 18 0 0 -6 -18 0 -2 0 0 -3 0 -33zm123 96l10 5 2 1 -1 2c-1,4 -3,7 -5,10l0 0c-3,3 -5,5 -7,7l0 0c-2,3 -5,4 -8,6 -2,2 -5,3 -8,4l0 0c-3,1 -6,2 -10,3 -3,0 -6,1 -10,1 -8,0 -15,-2 -22,-4l0 0c-6,-3 -12,-7 -17,-13 -4,-5 -8,-11 -10,-17 -2,-6 -4,-12 -4,-19 0,-7 1,-13 3,-18 2,-6 5,-11 9,-16l0 0c5,-7 11,-12 18,-15 6,-3 14,-5 22,-5 9,0 17,2 24,5l0 0c6,4 12,9 18,15 3,5 6,10 8,16 2,5 3,12 3,19l0 2 -3 0 -84 0c1,4 1,8 3,12 2,4 4,8 7,11 3,4 7,6 11,8l0 0c4,1 8,2 13,2 2,0 5,0 7,0 2,-1 4,-1 6,-2 3,-1 5,-2 6,-3l0 0c2,-1 4,-2 5,-3l0 0c2,-2 3,-3 5,-6l0 0c2,-2 4,-4 5,-8l2 -2 2 2zm6 8l-6 -3c-2,2 -3,5 -5,6 -2,3 -4,5 -5,6 -2,2 -4,3 -6,4l0 0c-2,2 -4,3 -7,4 -2,1 -5,1 -7,2 -3,0 -5,0 -8,0 -5,0 -10,-1 -15,-3l0 0c-5,-1 -9,-4 -12,-8l0 0c-4,-4 -7,-8 -9,-13 -2,-5 -3,-11 -3,-16l0 -3 3 0 84 0c-1,-5 -1,-10 -3,-15 -2,-5 -4,-10 -7,-14l0 0c-5,-6 -10,-10 -17,-13l0 0c-6,-3 -13,-5 -21,-5 -7,0 -14,2 -20,5 -6,3 -11,7 -16,13l0 0c-3,4 -6,9 -8,14 -2,6 -3,11 -3,17 0,6 2,12 4,17 2,6 5,11 9,16 4,5 9,9 15,11l0 0c6,2 13,4 20,4 3,0 7,-1 10,-1 3,-1 5,-1 8,-2l0 0c3,-1 5,-3 8,-4 2,-2 4,-3 6,-5l0 0c3,-2 5,-5 6,-7l0 0c2,-2 3,-4 5,-7zm-11 -35c0,-2 -1,-3 -2,-5l0 0c-1,-2 -2,-5 -4,-6 -1,-2 -3,-4 -5,-5 -2,-2 -4,-3 -6,-4l0 0c-3,-1 -5,-2 -8,-3 -2,0 -5,-1 -8,-1 -4,0 -8,1 -12,2 -4,2 -7,4 -10,7l0 0c-2,2 -4,4 -6,7l0 0c-1,3 -3,5 -4,8l65 0zm3 -7c1,3 2,6 3,9l1 3 -3 0 -72 0 -3 0 1 -3c1,-4 3,-9 4,-12l0 0c2,-4 5,-7 8,-9 3,-3 7,-6 11,-7 5,-2 9,-3 14,-3 3,0 6,1 9,1 3,1 6,2 9,3l0 0c3,1 5,3 7,5 3,1 5,3 6,5 2,3 4,5 5,8l0 0zm120 -31l13 0 2 0 0 2 0 77c0,7 0,13 -1,18 0,5 -1,9 -3,13 -1,4 -4,9 -7,12 -3,4 -6,7 -10,9 -5,3 -9,5 -14,6 -5,1 -11,2 -17,2 -4,0 -8,0 -12,-1 -4,-1 -7,-2 -11,-3 -3,-1 -6,-2 -9,-4l0 0c-3,-2 -6,-4 -8,-6 -2,-2 -4,-4 -6,-7 -2,-3 -4,-7 -6,-11l-1 -3 4 0 13 0 1 0 1 1c2,3 4,6 6,8l0 0c2,2 5,4 7,5l0 0c3,2 6,3 9,3 4,1 8,2 12,2 4,0 7,-1 11,-2l0 0c3,0 6,-1 9,-3l0 0c3,-1 5,-3 7,-5 2,-2 3,-4 4,-6 1,-2 2,-5 3,-8 0,-4 1,-8 1,-12 -2,1 -3,2 -4,3 -3,3 -6,5 -10,6 -3,2 -7,3 -11,4 -4,1 -7,1 -11,1 -5,0 -9,0 -14,-2 -4,-1 -8,-2 -12,-5l0 0c-5,-2 -8,-5 -11,-8 -4,-3 -6,-6 -8,-10 -3,-4 -4,-8 -6,-13 -1,-4 -1,-8 -1,-13 0,-5 0,-9 2,-14 1,-4 2,-8 5,-12l0 0c2,-4 5,-8 8,-11 3,-3 7,-6 11,-8l0 -1c4,-2 8,-4 13,-5l0 0c4,-1 9,-2 13,-2 4,0 7,1 11,2 4,0 7,2 10,3l0 0c4,2 7,4 10,6l0 0c2,2 3,3 5,5l0 -11 0 -2 2 0zm10 5l-7 0 0 14 0 7 -5 -5c-3,-4 -5,-6 -8,-9l0 0c-3,-2 -6,-4 -9,-5 -3,-2 -6,-3 -9,-3 -3,-1 -7,-2 -10,-2 -4,0 -8,1 -12,2l0 0c-4,1 -8,3 -11,5l0 0c-4,2 -7,5 -10,7 -3,3 -6,7 -8,10l0 0c-2,4 -4,8 -5,12 -1,4 -1,8 -1,12 0,4 0,8 1,12 1,4 3,8 5,11 2,4 4,7 7,10 3,2 6,5 10,7l0 0c4,2 8,4 11,5 4,1 8,1 13,1 3,0 7,0 10,-1 4,-1 7,-2 10,-3 3,-2 6,-4 9,-6 3,-2 5,-4 7,-7l5 -6 0 7 0 5c0,6 -1,10 -1,14 -1,5 -2,8 -3,11 -2,2 -3,5 -6,7 -2,2 -5,4 -8,6 -3,1 -6,3 -10,3l0 0c-4,1 -8,2 -12,2 -5,0 -9,-1 -13,-2 -3,0 -7,-2 -10,-3l0 0c-3,-2 -6,-4 -8,-7l0 0c-3,-2 -5,-4 -6,-7l-8 0c1,2 2,4 3,6 2,3 4,5 6,7 2,2 4,3 6,5l0 0c3,1 6,2 9,4 3,1 6,1 10,2l0 0c3,1 7,1 11,1 6,0 11,-1 15,-2 5,-1 9,-3 13,-5 4,-2 7,-5 10,-8 2,-3 4,-7 6,-11l0 0c1,-3 2,-7 2,-12 1,-4 1,-10 1,-17l0 -74zm-46 9c-4,0 -7,1 -10,2 -3,0 -6,2 -9,3l0 0c-2,2 -5,4 -7,6 -2,2 -4,5 -6,7l0 0c-1,3 -3,6 -3,9 -1,3 -2,6 -2,9 0,5 1,10 3,14 1,4 4,8 7,11 3,3 7,5 12,7l0 0c4,2 9,2 14,2 5,0 10,0 14,-2 5,-1 8,-4 12,-7l0 0c3,-3 5,-7 7,-11 1,-4 2,-9 2,-14 0,-4 0,-7 -1,-10 -1,-3 -2,-6 -3,-8l0 0c-2,-3 -3,-5 -6,-7l0 0c-2,-3 -4,-4 -7,-6l0 0c-2,-1 -5,-3 -8,-3 -3,-1 -6,-2 -9,-2zm-11 -3c3,-1 7,-2 11,-2 3,0 7,1 10,2 3,1 7,2 10,4l0 0c3,1 6,4 8,6l0 0c2,2 5,5 6,8l0 0c2,3 3,6 4,10 1,3 1,7 1,11 0,6 -1,11 -2,16 -2,5 -5,9 -9,13l0 0c-4,3 -8,6 -13,8 -5,2 -10,3 -16,3 -6,0 -11,-1 -16,-3l0 0c-5,-2 -10,-5 -13,-9 -4,-3 -7,-7 -9,-12 -2,-5 -3,-10 -3,-16 0,-3 1,-7 2,-10 1,-4 2,-7 4,-10l0 0c2,-3 4,-6 6,-9 3,-2 6,-4 9,-6l0 0c3,-2 6,-3 10,-4zm82 -11l12 0 3 0 0 2 0 7 1 -1c2,-3 4,-5 7,-6l0 0c2,-2 4,-3 7,-3 2,-1 5,-2 7,-2 2,0 4,1 6,1 2,1 4,2 6,3l3 1 -2 3 -6 10 -1 2 -2 -1c-1,-1 -3,-1 -3,-1l0 0c-1,0 -2,0 -3,0 -2,0 -3,0 -5,1l0 0c-2,0 -3,1 -5,3 -2,2 -3,3 -5,6l0 0c-1,2 -2,5 -3,9l0 0c-1,2 -1,6 -2,11 0,6 0,13 0,21l0 33 0 2 -3 0 -12 0 -3 0 0 -2 0 -97 0 -2 3 0zm10 5l-8 0 0 91 8 0 0 -30c0,-8 0,-15 0,-21 1,-6 1,-10 2,-13l0 0c1,-4 2,-7 4,-10l0 0c2,-3 3,-5 6,-7l0 0c2,-2 4,-3 6,-4l0 0c2,-1 5,-2 7,-2 1,0 2,1 4,1 0,0 1,0 2,1l4 -7c-1,0 -2,-1 -3,-1 -2,0 -3,-1 -5,-1 -2,0 -4,1 -6,1 -2,1 -4,2 -6,3l0 0c-1,1 -3,3 -5,5 -2,2 -4,4 -6,7l-4 7 0 -8 0 -12zm147 -3l0 97 0 2 -2 0 -13 0 -2 0 0 -2 0 -10c-1,1 -3,2 -4,3 -3,3 -7,5 -10,7l0 0c-3,1 -7,3 -11,3 -3,1 -7,2 -11,2 -7,0 -14,-2 -20,-4 -6,-3 -12,-7 -17,-12l0 0c-5,-5 -9,-11 -11,-17 -3,-6 -4,-13 -4,-21 0,-7 1,-14 4,-20 2,-6 6,-12 11,-17 5,-5 11,-9 17,-12 6,-2 13,-4 20,-4 4,0 8,1 12,2 4,1 7,2 11,4 3,2 6,4 9,6 1,2 3,3 4,4l0 -11 0 -2 2 0 13 0 2 0 0 2zm-5 94l0 -91 -7 0 0 15 0 8 -5 -6c-2,-4 -4,-6 -7,-9 -3,-2 -6,-4 -9,-6 -3,-1 -6,-3 -9,-3 -4,-1 -7,-2 -11,-2 -6,0 -12,2 -18,4 -6,2 -11,6 -15,11 -5,4 -8,9 -11,15 -2,6 -3,12 -3,18 0,7 1,13 3,19 3,6 6,11 11,16 4,4 9,8 15,10 5,2 11,4 18,4 3,0 7,-1 10,-1 4,-1 7,-2 10,-4l0 0c3,-1 6,-3 9,-6 2,-2 5,-4 7,-7l5 -6 0 7 0 14 7 0zm-47 -82c-3,0 -6,1 -9,2 -3,0 -6,2 -9,3l0 0c-2,2 -5,4 -7,6 -2,2 -4,5 -6,8l0 0c-1,2 -3,5 -3,8 -1,3 -2,7 -2,10 0,3 1,6 2,9 0,3 2,6 3,9l0 0c2,3 4,5 6,8 2,2 5,4 7,6l0 0c3,1 6,2 9,3 3,1 6,1 9,1 3,0 6,0 9,-1 3,-1 6,-2 9,-3 3,-2 5,-4 8,-6l0 0c2,-2 4,-5 5,-7l0 0c2,-3 3,-6 4,-9 0,-3 1,-6 1,-10 0,-5 -1,-10 -3,-14 -2,-5 -4,-9 -8,-12 -3,-4 -7,-6 -11,-8 -4,-2 -9,-3 -14,-3zm-11 -3c4,-1 7,-2 11,-2 6,0 11,1 16,3 5,2 9,5 13,9 4,4 7,9 9,14 2,5 3,10 3,16 0,4 -1,8 -2,11 0,4 -2,7 -4,10l0 0c-1,3 -3,6 -6,8l0 0c-2,3 -5,5 -9,7 -3,2 -6,3 -9,4 -4,1 -7,1 -11,1 -4,0 -7,0 -10,-1 -4,-1 -7,-2 -10,-4l0 0c-3,-2 -6,-4 -9,-7 -2,-2 -4,-5 -6,-9l0 0c-2,-3 -3,-6 -4,-10 -1,-3 -2,-7 -2,-10 0,-4 1,-7 2,-11 1,-3 2,-7 4,-10l0 0c2,-3 4,-6 6,-9 3,-2 6,-4 9,-6l0 0c3,-2 6,-3 9,-4zm99 -47l13 0 2 0 0 3 0 33 17 0 3 0 0 2 0 11 0 3 -3 0 -17 0 0 83 0 2 -2 0 -13 0 -2 0 0 -2 0 -83 -15 0 -2 0 0 -3 0 -11 0 -2 2 0 15 0 0 -33 0 -3 2 0zm10 5l-7 0 0 33 0 3 -3 0 -14 0 0 6 14 0 3 0 0 2 0 83 7 0 0 -83 0 -2 3 0 17 0 0 -6 -17 0 -3 0 0 -3 0 -33zm123 96l11 5 2 1 -1 2c-2,4 -4,7 -6,10l0 0c-2,3 -4,5 -7,7l0 0c-2,3 -5,4 -7,6 -3,2 -6,3 -9,4l0 0c-3,1 -6,2 -9,3 -4,0 -7,1 -11,1 -8,0 -15,-2 -22,-4l0 0c-6,-3 -12,-7 -16,-13 -5,-5 -8,-11 -11,-17 -2,-6 -3,-12 -3,-19 0,-7 1,-13 3,-18 2,-6 5,-11 9,-16l0 0c5,-7 10,-12 17,-15 7,-3 14,-5 23,-5 8,0 16,2 23,5l0 0c7,4 13,9 18,15 4,5 6,10 8,16 2,5 3,12 3,19l0 2 -2 0 -84 0c0,4 1,8 2,12 2,4 4,8 8,11 3,4 6,6 10,8l0 0c4,1 9,2 13,2 3,0 5,0 7,0 2,-1 5,-1 7,-2 2,-1 4,-2 6,-3l0 0c2,-1 3,-2 5,-3l0 0c1,-2 3,-3 4,-6l0 0c2,-2 4,-4 6,-8l1 -2 2 2zm6 8l-6 -3c-2,2 -3,5 -5,6 -1,3 -3,5 -5,6 -2,2 -4,3 -6,4l0 0c-2,2 -4,3 -7,4 -2,1 -4,1 -7,2 -3,0 -5,0 -8,0 -5,0 -10,-1 -15,-3l0 0c-4,-1 -8,-4 -12,-8l0 0c-4,-4 -7,-8 -9,-13 -1,-5 -2,-11 -2,-16l-1 -3 3 0 84 0c0,-5 -1,-10 -3,-15 -1,-5 -4,-10 -7,-14l0 0c-5,-6 -10,-10 -16,-13l0 0c-7,-3 -14,-5 -21,-5 -8,0 -15,2 -21,5 -6,3 -11,7 -16,13l0 0c-3,4 -6,9 -8,14 -1,6 -2,11 -2,17 0,6 1,12 3,17 2,6 5,11 9,16 5,5 10,9 15,11l0 0c6,2 13,4 20,4 4,0 7,-1 10,-1 3,-1 6,-1 8,-2l0 0c3,-1 6,-3 8,-4 2,-2 5,-3 7,-5l0 0c2,-2 4,-5 6,-7l0 0c1,-2 3,-4 4,-7zm-10 -35c-1,-2 -2,-3 -2,-5l0 0c-2,-2 -3,-5 -4,-6 -2,-2 -3,-4 -5,-5 -2,-2 -4,-3 -7,-4l0 0c-2,-1 -5,-2 -7,-3 -3,0 -5,-1 -8,-1 -5,0 -9,1 -12,2 -4,2 -8,4 -11,7l0 0c-2,2 -4,4 -6,7l0 0c-1,3 -2,5 -3,8l65 0zm2 -7c1,3 3,6 3,9l1 3 -3 0 -72 0 -3 0 1 -3c1,-4 3,-9 5,-12l0 0c2,-4 4,-7 7,-9 3,-3 7,-6 12,-7 4,-2 9,-3 14,-3 3,0 6,1 9,1 3,1 5,2 8,3l0 0c3,1 5,3 8,5 2,1 4,3 6,5 1,3 3,5 4,8l0 0zm136 -66l0 134 0 2 -2 0 -13 0 -2 0 0 -2 0 -10c-1,1 -3,2 -4,3l0 0c-3,3 -6,5 -10,7l0 0c-3,1 -7,3 -11,3 -3,1 -7,2 -11,2 -7,0 -14,-2 -20,-4 -6,-3 -12,-7 -17,-12l0 0c-5,-5 -9,-11 -11,-17 -3,-6 -4,-13 -4,-21 0,-7 1,-14 4,-20 2,-6 6,-12 11,-17 5,-5 11,-9 17,-12 6,-2 13,-4 20,-4 4,0 8,1 12,2 4,1 7,2 11,4l0 0c3,2 6,4 9,6 2,2 3,3 4,4l0 -48 0 -2 2 0 13 0 2 0 0 2zm-5 131l0 -128 -7 0 0 52 0 8 -5 -6c-2,-4 -4,-6 -7,-9 -3,-2 -6,-4 -9,-6l0 0c-3,-1 -6,-3 -9,-3 -3,-1 -7,-2 -11,-2 -6,0 -12,2 -18,4 -5,2 -11,6 -15,11l0 0c-5,4 -8,9 -11,15 -2,6 -3,12 -3,18 0,7 1,13 3,19 3,6 6,11 11,16 4,4 9,8 15,10 5,2 11,4 18,4 3,0 7,-1 10,-1 4,-1 7,-2 10,-4l0 0c3,-1 6,-3 9,-6l0 0c2,-2 5,-4 8,-7l4 -6 0 7 0 14 7 0zm-47 -82c-3,0 -6,1 -9,2 -3,0 -6,2 -9,3l0 0c-2,2 -5,4 -7,6 -2,2 -4,5 -6,8l0 0c-1,2 -3,5 -3,8 -1,3 -2,7 -2,10 0,3 1,6 2,9 0,3 2,6 3,9l0 0c2,3 4,5 6,8 2,2 5,4 7,6l0 0c3,1 6,2 9,3 3,1 6,1 9,1 3,0 6,0 9,-1 3,-1 6,-2 9,-3 3,-2 5,-4 8,-6l0 0c2,-2 4,-5 5,-7l0 0c2,-3 3,-6 4,-9l0 0c0,-3 1,-6 1,-10 0,-5 -1,-10 -3,-14 -2,-5 -4,-9 -8,-12 -3,-4 -7,-6 -11,-8 -4,-2 -9,-3 -14,-3zm-10 -3c3,-1 6,-2 10,-2 6,0 11,1 16,3 5,2 9,5 13,9 4,4 7,9 9,14 2,5 3,10 3,16 0,4 -1,8 -2,11 0,4 -2,7 -3,10l0 0c-2,3 -4,6 -7,8l0 0c-2,3 -5,5 -8,7 -4,2 -7,3 -10,4 -4,1 -7,1 -11,1 -4,0 -7,0 -10,-1 -4,-1 -7,-2 -10,-4l0 0c-3,-2 -6,-4 -9,-7 -2,-2 -4,-5 -6,-9l0 0c-2,-3 -3,-6 -4,-10 -1,-3 -2,-7 -2,-10 0,-4 1,-7 2,-11 1,-3 2,-7 4,-10l0 0c2,-3 4,-6 6,-9 3,-2 6,-4 9,-6l0 0c3,-2 6,-3 10,-4zm125 61l11 -6 2 -2 2 3c3,6 7,12 12,15 4,3 8,5 13,5 1,0 3,0 5,-1 2,0 4,-1 6,-2l0 0c1,-1 3,-2 4,-3l0 0c1,-1 2,-3 3,-4l0 0c1,-2 2,-3 2,-5 1,-1 1,-3 1,-5 0,-2 0,-4 -1,-5l0 0c-1,-2 -2,-4 -3,-6 -2,-3 -5,-6 -8,-9l0 0c-4,-4 -8,-7 -14,-11l0 0c-5,-5 -10,-8 -13,-11 -4,-3 -6,-6 -7,-8 -3,-3 -5,-6 -6,-10 -1,-4 -2,-7 -2,-11 0,-3 1,-6 1,-9 1,-3 2,-5 4,-8 1,-2 3,-5 5,-7 2,-2 4,-3 7,-5 3,-1 5,-2 8,-3l0 0c3,-1 6,-1 9,-1 4,0 7,0 10,1 3,1 6,2 9,4l0 0c3,1 6,4 8,7 3,2 6,6 9,10l2 2 -2 2 -11 8 -2 1 -1 -2c-3,-3 -5,-6 -7,-8 -2,-2 -3,-3 -5,-4 -2,-1 -3,-2 -5,-2 -1,-1 -3,-1 -5,-1 -2,0 -4,1 -6,1 -2,1 -4,2 -5,3l0 0c-2,2 -3,3 -3,5l0 0c-1,1 -1,3 -1,5 0,2 0,3 0,4 0,1 1,2 1,3l0 0c1,2 1,3 2,4 1,2 3,3 4,4 1,1 3,3 5,5 3,2 7,5 12,8 5,4 10,8 14,12l0 0c4,4 7,8 9,11l0 0c3,3 4,7 5,10 2,4 2,7 2,11 0,5 -1,10 -3,14 -2,5 -5,9 -8,12l0 0c-4,4 -8,7 -13,9 -5,2 -10,2 -15,2 -4,0 -8,0 -12,-1l0 0c-4,-1 -8,-3 -11,-5 -4,-2 -7,-5 -10,-9 -3,-4 -6,-8 -9,-13l-1 -2 2 -2zm12 -1l-7 4c2,4 4,8 7,11 3,3 6,6 9,8 3,2 6,3 9,4l0 0c3,1 7,1 11,1 5,0 9,0 13,-2 4,-2 8,-4 11,-7 3,-4 6,-7 8,-11 1,-4 2,-8 2,-12 0,-3 0,-6 -1,-9 -1,-3 -3,-6 -5,-9l0 0c-2,-3 -5,-7 -8,-10l0 0c-4,-4 -9,-8 -14,-12 -5,-3 -9,-6 -12,-8 -3,-3 -4,-4 -5,-5l0 0c-2,-2 -3,-3 -5,-5 -1,-1 -2,-3 -2,-4l0 0c-1,-2 -2,-3 -2,-5 0,-2 0,-3 0,-5 0,-2 0,-5 1,-7l0 0c1,-2 2,-4 4,-6 2,-2 5,-4 7,-4 2,-1 5,-2 8,-2 2,0 4,1 7,1l0 0c2,1 4,2 6,3 1,1 4,3 6,5 2,2 3,4 5,6l7 -5c-2,-3 -5,-6 -7,-8 -3,-3 -5,-5 -8,-6l0 0c-2,-1 -5,-2 -7,-3 -3,-1 -6,-1 -9,-1 -2,0 -5,0 -7,1 -3,0 -5,1 -8,3 -2,1 -4,2 -6,4 -1,2 -3,3 -4,6 -1,2 -2,4 -3,6 0,3 -1,5 -1,8 0,3 1,6 2,9 1,3 2,6 5,9l0 0c1,2 3,4 6,7 4,3 8,6 13,10l0 0c6,5 10,8 14,12l0 0c4,4 7,7 9,10 2,2 3,5 4,7l0 0c1,2 1,5 1,7 0,2 0,4 -1,6 0,3 -1,4 -2,6 -1,2 -3,4 -4,6 -2,1 -4,2 -6,3l0 0c-2,2 -4,2 -7,3 -2,1 -4,1 -6,1 -6,0 -12,-2 -16,-6 -5,-3 -9,-8 -12,-15zm137 -74c7,0 14,2 21,5 6,3 12,7 17,12 5,6 8,11 11,17 2,6 3,13 3,20 0,7 -1,13 -3,20 -3,6 -7,12 -11,17 -5,5 -11,9 -17,12 -7,2 -14,4 -21,4 -8,0 -15,-2 -21,-4 -7,-3 -12,-7 -17,-12 -5,-5 -9,-11 -11,-17 -3,-6 -4,-13 -4,-20 0,-7 1,-14 3,-20 3,-6 6,-11 11,-17l0 0c5,-5 11,-9 17,-12l0 0c7,-3 14,-5 22,-5zm19 9c-6,-2 -12,-4 -19,-4 -7,0 -14,2 -20,4l0 0c-6,3 -11,7 -15,12l0 0c-5,4 -8,10 -10,15 -2,6 -3,11 -3,18 0,6 1,12 3,18 3,5 6,11 10,15 5,5 10,9 16,11 5,2 12,4 19,4 7,0 13,-2 19,-4 5,-2 10,-6 15,-11 4,-4 8,-10 10,-15 2,-6 3,-12 3,-18 0,-7 -1,-12 -3,-18 -2,-6 -5,-11 -9,-15 -5,-5 -10,-9 -16,-12zm-19 9c-5,0 -10,1 -14,2l0 0c-4,2 -8,5 -11,8l0 0c-3,4 -6,8 -8,12 -1,4 -2,9 -2,14 0,3 0,7 1,10 1,3 2,6 3,8l0 0c2,3 4,6 6,8 2,2 4,4 7,5l0 0c3,2 6,3 8,4 3,0 6,1 10,1 3,0 6,-1 9,-1 3,-1 6,-2 8,-4 3,-1 5,-3 7,-5l0 0c3,-2 4,-5 6,-8 1,-2 3,-5 3,-8 1,-3 2,-7 2,-10 0,-5 -1,-10 -3,-14 -2,-4 -4,-8 -8,-12 -3,-3 -7,-6 -11,-8 -4,-1 -9,-2 -13,-2zm-16 -2c5,-2 10,-3 16,-3 5,0 10,1 15,3 5,2 9,5 13,9 4,4 7,8 9,13 2,5 3,10 3,16 0,4 -1,7 -2,11 -1,3 -2,7 -4,10 -1,3 -4,6 -6,8l0 0c-2,3 -5,5 -8,7l0 0c-3,1 -7,3 -10,4 -3,0 -7,1 -10,1 -4,0 -7,-1 -11,-1 -3,-1 -6,-3 -9,-4l0 0c-4,-2 -6,-4 -9,-7 -2,-2 -4,-5 -6,-8l0 0c-2,-3 -3,-7 -4,-10 -1,-4 -1,-7 -1,-11 0,-6 1,-11 3,-16 2,-5 4,-9 8,-13 4,-4 9,-7 13,-9l0 0zm87 -50l12 0 3 0 0 2 0 134 0 2 -3 0 -12 0 -3 0 0 -2 0 -134 0 -2 3 0zm10 5l-8 0 0 128 8 0 0 -128zm26 32l13 0 2 0 0 2 0 45c0,6 1,10 1,14 0,4 1,6 1,8l0 0c1,3 2,5 4,7l0 0c1,3 3,4 5,6 2,1 5,3 8,3l0 0c2,1 5,2 9,2 3,0 6,-1 8,-2 3,0 6,-1 8,-3 4,-3 7,-7 9,-12l0 0c0,-1 1,-4 1,-8 0,-4 0,-9 0,-15l0 -45 0 -2 3 0 13 0 2 0 0 2 0 48c0,6 0,12 -1,18l0 0c-1,5 -2,9 -4,13l0 0c-1,3 -3,7 -6,9 -2,3 -5,6 -9,8 -3,2 -7,3 -11,4 -4,1 -9,2 -13,2 -5,0 -10,-1 -14,-2 -4,-1 -8,-2 -11,-4 -4,-2 -6,-5 -9,-8 -2,-3 -5,-6 -6,-9l0 0c-2,-4 -3,-9 -4,-14 -1,-5 -1,-11 -1,-18l0 -47 0 -2 2 0zm10 5l-7 0 0 44c0,7 0,12 1,17 1,5 2,9 3,13l0 0c2,3 4,6 6,8 2,2 5,5 7,6 3,2 7,3 10,4 4,1 8,2 13,2 4,0 8,-1 12,-2 4,-1 7,-2 10,-4 3,-1 5,-4 7,-6 2,-2 4,-5 6,-8l0 0c1,-4 2,-7 3,-12l0 0c1,-5 1,-11 1,-17l0 -45 -8 0 0 42c0,6 0,11 0,16 0,4 -1,7 -1,9l0 0c-2,6 -6,11 -11,14 -3,2 -6,3 -9,4 -3,1 -7,2 -10,2 -4,0 -8,-1 -11,-2l0 0c-3,-1 -6,-2 -9,-4l0 0c-2,-2 -5,-4 -7,-7l0 0c-1,-2 -3,-5 -4,-8l0 0c0,-2 -1,-6 -1,-10l0 0c0,-3 -1,-8 -1,-14l0 -42zm113 -41l12 0 3 0 0 3 0 33 17 0 3 0 0 2 0 11 0 3 -3 0 -17 0 0 83 0 2 -3 0 -12 0 -3 0 0 -2 0 -83 -14 0 -2 0 0 -3 0 -11 0 -2 2 0 14 0 0 -33 0 -3 3 0zm10 5l-8 0 0 33 0 3 -2 0 -14 0 0 6 14 0 2 0 0 2 0 83 8 0 0 -83 0 -2 2 0 18 0 0 -6 -18 0 -2 0 0 -3 0 -33zm45 -9c2,0 3,1 5,1l0 0c1,1 3,2 4,3 1,1 2,3 3,4l0 0c0,2 1,3 1,5 0,2 -1,3 -1,5 -1,1 -2,3 -3,4 -1,1 -3,2 -4,3 -2,0 -3,1 -5,1 -2,0 -3,-1 -5,-1l0 0c-1,-1 -3,-2 -4,-3 -3,-2 -4,-5 -4,-9 0,-3 1,-6 4,-9 2,-2 5,-4 9,-4zm3 6c-1,0 -2,-1 -3,-1 -2,0 -4,1 -6,3 -1,1 -2,3 -2,5 0,2 1,4 2,5 1,1 2,2 3,2l0 0c1,1 2,1 3,1 1,0 2,0 3,-1 1,0 2,-1 2,-2 1,0 2,-1 2,-2 0,-1 1,-2 1,-3 0,-1 -1,-2 -1,-3l0 0c0,-1 -1,-2 -2,-2 0,-1 -1,-2 -2,-2l0 0zm-9 34l12 0 3 0 0 2 0 97 0 2 -3 0 -12 0 -3 0 0 -2 0 -97 0 -2 3 0zm10 5l-8 0 0 91 8 0 0 -91zm73 -8c8,0 15,2 22,5 6,3 12,7 17,12 5,6 8,11 10,17 3,6 4,13 4,20 0,7 -1,13 -4,20 -2,6 -6,12 -11,17 -5,5 -10,9 -17,12 -6,2 -13,4 -21,4 -7,0 -14,-2 -21,-4 -6,-3 -12,-7 -17,-12 -5,-5 -8,-11 -11,-17 -2,-6 -3,-13 -3,-20 0,-7 1,-14 3,-20 2,-6 6,-11 11,-17l0 0c5,-5 10,-9 17,-12l0 0c6,-3 14,-5 21,-5zm20 9c-6,-2 -13,-4 -20,-4 -7,0 -13,2 -19,4l0 0c-6,3 -11,7 -16,12l0 0c-4,4 -7,10 -9,15 -2,6 -3,11 -3,18 0,6 1,12 3,18 2,5 6,11 10,15 4,5 10,9 15,11 6,2 12,4 19,4 7,0 14,-2 19,-4 6,-2 11,-6 16,-11 4,-4 7,-10 10,-15 2,-6 3,-12 3,-18 0,-7 -1,-12 -3,-18 -2,-6 -6,-11 -10,-15 -4,-5 -10,-9 -15,-12zm-20 9c-4,0 -9,1 -13,2l0 0c-4,2 -8,5 -11,8l0 0c-4,4 -6,8 -8,12 -2,4 -3,9 -3,14 0,3 1,7 2,10 0,3 2,6 3,8l0 0c2,3 3,6 6,8 2,2 4,4 7,5l0 0c2,2 5,3 8,4 3,0 6,1 9,1 4,0 7,-1 10,-1 2,-1 5,-2 8,-4 3,-1 5,-3 7,-5l0 0c2,-2 4,-5 6,-8 1,-2 2,-5 3,-8 1,-3 1,-7 1,-10 0,-5 -1,-10 -2,-14 -2,-4 -5,-8 -8,-12 -4,-3 -7,-6 -11,-8 -4,-1 -9,-2 -14,-2zm-15 -2c5,-2 10,-3 15,-3 6,0 11,1 16,3 4,2 9,5 13,9 3,4 6,8 8,13 2,5 3,10 3,16 0,4 0,7 -1,11 -1,3 -2,7 -4,10 -2,3 -4,6 -6,8l0 0c-3,3 -5,5 -9,7l0 0c-3,1 -6,3 -9,4 -4,0 -7,1 -11,1 -3,0 -7,-1 -10,-1 -3,-1 -7,-3 -10,-4l0 0c-3,-2 -6,-4 -8,-7 -2,-2 -5,-5 -6,-8l0 0c-2,-3 -3,-7 -4,-10 -1,-4 -2,-7 -2,-11 0,-6 1,-11 3,-16 2,-5 5,-9 9,-13 4,-4 8,-7 13,-9l0 0zm88 -13l13 0 2 0 0 2 0 11c2,-2 3,-3 4,-4 3,-2 6,-5 9,-6l0 0c3,-2 7,-3 10,-4 4,-1 7,-2 11,-2 4,0 7,1 11,2l0 0c3,1 6,2 9,4l0 0c3,2 6,5 8,7l0 0c2,3 4,6 6,9l0 0c1,4 2,8 3,13l0 0c1,5 1,11 1,17l0 50 0 2 -3 0 -12 0 -2 0 0 -2 0 -46c0,-6 -1,-10 -1,-14 0,-3 0,-6 -1,-8l0 0c0,-3 -1,-5 -3,-8 -1,-2 -2,-3 -4,-5l0 0c-2,-1 -4,-2 -6,-3l0 0c-3,-1 -6,-1 -9,-1 -3,0 -6,0 -9,2 -3,1 -6,2 -9,5l0 0c-3,2 -5,5 -7,8l0 0c-2,2 -3,5 -4,9l0 0c-1,2 -1,5 -1,10 -1,4 -1,9 -1,15l0 36 0 2 -2 0 -13 0 -2 0 0 -2 0 -97 0 -2 2 0zm10 5l-7 0 0 91 7 0 0 -33c0,-6 0,-11 1,-16 0,-4 1,-8 1,-10l0 0c1,-4 3,-8 5,-11l0 0c2,-3 5,-6 8,-9l0 0c3,-3 6,-5 10,-6 4,-1 7,-2 11,-2 4,0 7,0 10,1l0 0c3,1 6,2 8,4l0 0c2,2 4,4 6,7 1,3 2,6 3,9 1,2 1,5 1,9 0,4 1,8 1,14l0 43 7 0 0 -47c0,-6 0,-12 -1,-17 -1,-4 -2,-8 -3,-11l0 0c-1,-3 -3,-5 -5,-7l0 0c-1,-3 -4,-5 -6,-6 -3,-2 -6,-3 -9,-4l0 0c-3,-1 -6,-2 -9,-2 -3,0 -7,1 -10,2 -3,0 -6,2 -9,3l0 0c-2,2 -5,4 -8,6 -2,2 -5,5 -7,8l-5 6 0 -7 0 -15zm63 25l0 0 0 0 0 0zm88 -15l-8 8 -2 2 -1 -2c-4,-3 -7,-5 -10,-7l0 0c-2,-1 -5,-2 -8,-2 -2,0 -3,0 -5,1 -1,0 -2,1 -4,2 -1,1 -2,3 -2,4l0 0c-1,1 -1,2 -1,4 0,2 1,5 3,7l0 0c1,1 3,3 5,4 2,2 5,4 9,6 5,2 9,5 12,7 3,2 6,5 8,7l0 0c1,3 3,5 4,8l0 0c0,3 1,6 1,9 0,4 -1,8 -2,12 -2,3 -4,7 -7,10 -3,3 -7,5 -10,6 -4,2 -8,3 -13,3 -6,0 -11,-2 -17,-4 -2,-1 -5,-3 -7,-5 -2,-2 -4,-4 -6,-6l-1 -2 1 -1 8 -9 2 -2 2 2c3,3 6,6 9,7l0 1c3,1 6,2 9,2 2,0 4,0 6,-1l0 0c2,-1 3,-2 5,-3l0 0c1,-2 2,-3 3,-5l0 0c1,-1 1,-3 1,-5 0,-3 -1,-5 -3,-7 -1,-2 -2,-3 -5,-5l0 0c-2,-1 -6,-3 -10,-5l0 0c-4,-2 -8,-5 -11,-7 -3,-2 -5,-5 -7,-7 -2,-3 -3,-5 -4,-8 -1,-3 -1,-5 -1,-9 0,-4 0,-7 2,-11 1,-3 3,-6 6,-9 3,-2 6,-4 9,-6l0 0c4,-1 8,-2 12,-2 4,0 9,2 14,4 5,2 9,6 14,10l2 2 -2 2zm-10 3l5 -5c-4,-3 -8,-6 -11,-8 -4,-2 -8,-3 -12,-3 -4,0 -7,1 -10,2l0 0c-3,1 -5,3 -8,5 -2,2 -3,5 -5,7l0 0c-1,3 -1,6 -1,9 0,3 0,5 1,8 1,2 2,4 3,6 1,2 3,4 6,6 3,2 7,4 11,6 4,2 7,4 10,6l0 0c3,2 5,4 6,5l0 0c3,4 4,7 4,11 0,3 0,5 -1,7l0 0c-1,3 -3,5 -5,6l0 0c-2,2 -4,4 -6,5l0 0c-3,0 -5,1 -8,1 -4,0 -8,-1 -12,-3l0 0c-3,-2 -5,-4 -8,-7l-5 6c1,1 3,2 4,3 2,2 4,3 7,4 4,3 9,4 14,4 4,0 8,-1 11,-2 3,-1 6,-3 8,-6 3,-2 5,-5 6,-8 1,-3 2,-7 2,-10 0,-3 0,-5 -1,-7l0 0c-1,-3 -2,-5 -4,-7 -1,-2 -3,-4 -6,-6 -3,-2 -7,-4 -11,-7 -4,-2 -7,-4 -10,-5 -3,-2 -5,-4 -6,-6 -3,-3 -4,-6 -4,-10 0,-2 0,-4 1,-6l0 0c1,-2 2,-4 4,-5 2,-2 3,-3 5,-4 2,-1 5,-1 7,-1 4,0 7,1 11,3l0 0c3,1 5,3 8,6z"/>
  </g>
 </g>
</svg>
